#!OML:ASF X:\für Bonn\!DataBase\2005_08_10_Bjorn_Final\c3d\bjorn.ASF
:FULLY-SPECIFIED
:DEGREES
631
root -1.29558 1.54548 21.4039 -442.862 -169.938 12.0521
lowerback -8.23609 -0.92835 -10.9699
upperback 1.23526 -0.126225 -5.78838
thorax 5.96403 -0.473275 -0.0048439
lowerneck -15.7919 -6.37978 -2.04913
upperneck 5.8289 -9.01421 5.86771
head 4.65617 -4.25813 1.35482
rclavicle -3.18055e-014 -3.99557e-014
rhumerus -226.455 -208.559 111.789
rradius 103.175
rwrist -8.03719
rhand -16.2829 13.8826
rfingers 7.12502
rthumb 9.92724 -15.8633
lclavicle -3.18055e-014 -3.99557e-014
lhumerus -389.684 -52.4702 -297.211
lradius 73.6396
lwrist -19.1349
lhand -45.7548 -25.4454
lfingers 7.12502
lthumb -18.5098 3.69396
rfemur -197.77 -156.017 183.574
rtibia 32.9994
rfoot 9.50181 -4.97006
rtoes 13.9943
lfemur -27.3126 -11.5908 -27.7704
ltibia 35.0895
lfoot 17.554 1.75569
ltoes -15.0846
632
root -1.29757 1.5445 21.4018 -442.846 -169.996 12.0614
lowerback -8.25943 -0.940198 -10.9265
upperback 1.22743 -0.140765 -5.74543
thorax 5.97009 -0.47757 0.0151427
lowerneck -15.7365 -6.37231 -2.11252
upperneck 5.7817 -8.98413 5.85399
head 4.63348 -4.24618 1.36581
rclavicle -2.38542e-014 5.52621e-014
rhumerus -226.463 -208.711 111.604
rradius 102.591
rwrist -8.12931
rhand -16.2786 13.8849
rfingers 7.12502
rthumb 9.93141 -15.8609
lclavicle -2.38542e-014 5.52621e-014
lhumerus -389.692 -52.4025 -297.158
lradius 73.1943
lwrist -19.0769
lhand -45.6353 -25.2656
lfingers 7.12502
lthumb -18.3949 3.88468
rfemur -197.805 -156.005 183.646
rtibia 33.0115
rfoot 9.56695 -4.89703
rtoes 13.8076
lfemur -26.7776 -11.5816 -27.7
ltibia 34.2368
lfoot 17.5315 1.31026
ltoes -15.7391
633
root -1.30008 1.54395 21.4001 -442.832 -170.072 12.0634
lowerback -8.29637 -0.956269 -10.8627
upperback 1.23812 -0.157923 -5.69796
thorax 6.00401 -0.483581 0.0275021
lowerneck -15.7501 -6.35321 -2.12012
upperneck 5.75771 -8.94414 5.78971
head 4.62354 -4.22914 1.35131
rclavicle -5.24792e-014 2.34566e-014
rhumerus -226.423 -208.859 111.425
rradius 101.951
rwrist -8.18902
rhand -16.2512 13.8459
rfingers 7.12502
rthumb 9.95783 -15.8986
lclavicle -5.24792e-014 2.34566e-014
lhumerus -389.626 -52.3064 -297.151
lradius 72.6754
lwrist -19.0241
lhand -45.497 -25.1367
lfingers 7.12502
lthumb -18.2618 4.02611
rfemur -197.841 -155.962 183.733
rtibia 33.0262
rfoot 9.66438 -4.87581
rtoes 13.9747
lfemur -26.2421 -11.5511 -27.6174
ltibia 33.4191
lfoot 17.5236 0.874602
ltoes -16.2991
634
root -1.30178 1.5426 21.3982 -442.819 -170.128 12.0752
lowerback -8.32335 -0.961924 -10.799
upperback 1.24814 -0.1646 -5.68491
thorax 6.0304 -0.485015 0.00496716
lowerneck -15.7546 -6.34563 -2.11264
upperneck 5.73511 -8.93212 5.77397
head 4.61561 -4.22424 1.34677
rclavicle -1.27222e-014 -2.78299e-015
rhumerus -226.382 -208.951 111.212
rradius 101.272
rwrist -8.19835
rhand -16.2216 13.7487
rfingers 7.12502
rthumb 9.98638 -15.9944
lclavicle -1.27222e-014 -2.78299e-015
lhumerus -389.551 -52.2609 -297.211
lradius 72.2053
lwrist -18.9583
lhand -45.3464 -24.9299
lfingers 7.12502
lthumb -18.117 4.24634
rfemur -197.882 -155.947 183.804
rtibia 33.0632
rfoot 9.73212 -4.81147
rtoes 13.8985
lfemur -25.7097 -11.5196 -27.5548
ltibia 32.614
lfoot 17.5744 0.398864
ltoes -16.7492
